<?xml version="1.0" encoding="UTF-8" standalone="no"?>
<svg
   width="85mm"
   height="85mm"
   viewBox="0 0 85 85"
   version="1.1"
   id="svg998"
   inkscape:version="1.1.1 (3bf5ae0d25, 2021-09-20)"
   sodipodi:docname="acanthis.svg"
   xmlns:inkscape="http://www.inkscape.org/namespaces/inkscape"
   xmlns:sodipodi="http://sodipodi.sourceforge.net/DTD/sodipodi-0.dtd"
   xmlns:xlink="http://www.w3.org/1999/xlink"
   xmlns="http://www.w3.org/2000/svg"
   xmlns:svg="http://www.w3.org/2000/svg"
   xmlns:rdf="http://www.w3.org/1999/02/22-rdf-syntax-ns#"
   xmlns:cc="http://creativecommons.org/ns#"
   xmlns:dc="http://purl.org/dc/elements/1.1/">
  <defs
     id="defs992" />
  <sodipodi:namedview
     id="base"
     pagecolor="#ffffff"
     bordercolor="#666666"
     borderopacity="1.0"
     inkscape:pageopacity="0.0"
     inkscape:pageshadow="2"
     inkscape:zoom="1.4"
     inkscape:cx="-9.6428571"
     inkscape:cy="203.57143"
     inkscape:document-units="mm"
     inkscape:current-layer="layer1"
     inkscape:document-rotation="0"
     showgrid="false"
     fit-margin-top="0"
     fit-margin-left="0"
     fit-margin-right="0"
     fit-margin-bottom="0"
     inkscape:window-width="2560"
     inkscape:window-height="1371"
     inkscape:window-x="0"
     inkscape:window-y="0"
     inkscape:window-maximized="1"
     inkscape:pagecheckerboard="0" />
  <metadata
     id="metadata995">
    <rdf:RDF>
      <cc:Work
         rdf:about="">
        <dc:format>image/svg+xml</dc:format>
        <dc:type
           rdf:resource="http://purl.org/dc/dcmitype/StillImage" />
        <dc:title />
      </cc:Work>
    </rdf:RDF>
  </metadata>
  <g
     inkscape:label="Layer 1"
     inkscape:groupmode="layer"
     id="layer1"
     transform="translate(16.785353,-15.044695)">
    <path
       id="path38-9-9-3-8-1-7-3-9-2-7"
       style="fill:#ff0000;fill-opacity:1;stroke:#000000;stroke-width:2;stroke-linecap:butt;stroke-linejoin:miter;stroke-miterlimit:4.5;stroke-dasharray:none;stroke-opacity:0.996639"
       d="m 18.987632,23.02409 c -0.4353,0.66488 -0.925,-0.33913 -1.3889,-0.53759 -1.6145,-1.27979 -3.229,-2.55957 -4.8435,-3.83936 -0.5626,2.86132 -1.1249,5.72268 -1.6875,8.58398 -1.8157994,-0.19852 -4.1321988,-0.36584 -5.9479988,-0.5644 1.0879,2.98047 2.4181003,6.76747 3.5059997,9.74793 6.1833991,-4.11702 14.0786991,-5.44214 21.1456991,-3.30413 5.359,1.44071 9.9969,4.94169 12.9441,9.59988 1.9165,2.9488 3.2068,6.46186 4.1196,9.84956 l 16.9845,1.67116 c -4.144,-2.68787 -8.2864,-5.37834 -12.4316,-8.06445 3.2568,-0.45254 6.513,-0.90905 9.7695,-1.36328 -3.9276,-2.2053 -7.8564,-4.40854 -11.7832,-6.61524 3.0756,-0.7678 6.151,-1.5365 9.2266,-2.30469 -4.5769,-1.66066 -9.1533,-3.32255 -13.7305,-4.98242 2.0538,-1.4212 4.1095,-2.8397 6.1641,-4.25976 -4.5241,-0.51095 -9.0481,-1.02287 -13.5723,-1.53321 0.6367,-1.82007 1.272,-3.64065 1.9082,-5.46093 -3.371,1.12452 -6.7425,2.24763 -10.1133,3.37304 -1.0805,-2.11926 -2.1615,-4.23826 -3.2422,-6.35742 -2.3424,2.12044 -4.6849,4.24089 -7.0273,6.36133 z"
       sodipodi:nodetypes="ccccccccccccccccccccc"
       inkscape:export-xdpi="153.33067"
       inkscape:export-ydpi="153.33067" />
    <use
       x="0"
       y="0"
       xlink:href="#path38-9-9-3-8-1-7-3-9-2-7"
       id="use1620-4"
       transform="rotate(141.19676,22.642735,56.515052)"
       width="100%"
       height="100%"
       inkscape:transform-center-x="22.861643"
       inkscape:transform-center-y="17.18311"
       style="stroke:#000000;stroke-width:2;stroke-miterlimit:4.5;stroke-dasharray:none;stroke-opacity:0.996639"
       inkscape:export-xdpi="153.33067"
       inkscape:export-ydpi="153.33067" />
    <circle
       style="fill:#000000;fill-opacity:1;stroke:#000000;stroke-width:6.5;stroke-miterlimit:4;stroke-dasharray:none;stroke-opacity:1"
       id="path110-2-2-1-9-0-3-0-2"
       cx="22.903759"
       cy="56.616123"
       r="33.793282"
       inkscape:export-xdpi="153.33067"
       inkscape:export-ydpi="153.33067" />
    <path
       style="fill:none;stroke:#ffffff;stroke-width:1;stroke-linecap:butt;stroke-linejoin:miter;stroke-miterlimit:4;stroke-dasharray:none;stroke-opacity:1"
       d="M 9.9197323,40.20299 14.047432,52.90725 6.9532332,59.08403 18.192632,57.42197"
       id="path26-0-8-9-7-6-6-2-8"
       sodipodi:nodetypes="cccc"
       inkscape:export-xdpi="153.33067"
       inkscape:export-ydpi="153.33067" />
    <path
       style="fill:#ffffff;fill-opacity:1;stroke:none;stroke-width:0.465844;stroke-linecap:butt;stroke-linejoin:miter;stroke-miterlimit:4;stroke-dasharray:none;stroke-opacity:1"
       d="m 36.365532,42.50088 c -4.1119,0.99358 -6.0983,-0.87215 -7.9655,1.25716 -1.8672,2.1293 0.4596,5.00163 3.1088,3.73364 2.6491,-1.268 2.9739,-2.99749 4.8567,-4.99075 0,-10e-6 0,-5e-5 0,-5e-5 z"
       id="path24-7-2-2-4-5-3-92-3"
       sodipodi:nodetypes="czzsc"
       inkscape:export-xdpi="153.33067"
       inkscape:export-ydpi="153.33067" />
    <path
       id="path38-9-9-3-8-1-7-3-9-2"
       style="fill:#ff0000;fill-opacity:1;stroke:none;stroke-width:1;stroke-linecap:butt;stroke-linejoin:miter;stroke-miterlimit:4;stroke-dasharray:none;stroke-opacity:1"
       d="m 18.987632,23.02409 c -0.4353,0.66488 -0.925,-0.33913 -1.3889,-0.53759 -1.6145,-1.27979 -3.229,-2.55957 -4.8435,-3.83936 -0.5626,2.86132 -1.1249,5.72268 -1.6875,8.58398 -1.8157994,-0.19852 -4.1321988,-0.36584 -5.9479988,-0.5644 1.0879,2.98047 2.4181003,6.76747 3.5059997,9.74793 6.1833991,-4.11702 14.0786991,-5.44214 21.1456991,-3.30413 5.359,1.44071 9.9969,4.94169 12.9441,9.59988 1.9165,2.9488 3.2068,6.46186 4.1196,9.84956 l 16.9845,1.67116 c -4.144,-2.68787 -7.9102,-5.4226 -12.0554,-8.10871 3.2568,-0.45254 6.1368,-0.86479 9.3933,-1.31902 -3.9276,-2.2053 -7.8564,-4.40854 -11.7832,-6.61524 3.0756,-0.7678 6.151,-1.5365 9.2266,-2.30469 -4.5769,-1.66066 -9.1533,-3.32255 -13.7305,-4.98242 2.0538,-1.4212 4.1095,-2.8397 6.1641,-4.25976 -4.5241,-0.51095 -9.0481,-1.02287 -13.5723,-1.53321 0.6367,-1.82007 1.272,-3.64065 1.9082,-5.46093 -3.371,1.12452 -6.7425,2.24763 -10.1133,3.37304 -1.0805,-2.11926 -2.1615,-4.23826 -3.2422,-6.35742 -2.3424,2.12044 -4.6849,4.24089 -7.0273,6.36133 z"
       sodipodi:nodetypes="ccccccccccccccccccccc"
       inkscape:export-xdpi="153.33067"
       inkscape:export-ydpi="153.33067" />
    <use
       x="0"
       y="0"
       xlink:href="#path38-9-9-3-8-1-7-3-9-2"
       id="use1620"
       transform="rotate(141.19676,22.642735,56.515052)"
       width="100%"
       height="100%"
       inkscape:transform-center-x="22.861643"
       inkscape:transform-center-y="17.18311"
       inkscape:export-xdpi="153.33067"
       inkscape:export-ydpi="153.33067" />
  </g>
</svg>
