<?xml version="1.0" encoding="UTF-8" standalone="no"?>
<svg
   width="85mm"
   height="85mm"
   viewBox="0 0 85 85"
   version="1.1"
   id="svg998"
   inkscape:version="1.2.1 (9c6d41e410, 2022-07-14)"
   sodipodi:docname="acanthis.svg"
   inkscape:export-filename="acanthis.png"
   inkscape:export-xdpi="96"
   inkscape:export-ydpi="96"
   xmlns:inkscape="http://www.inkscape.org/namespaces/inkscape"
   xmlns:sodipodi="http://sodipodi.sourceforge.net/DTD/sodipodi-0.dtd"
   xmlns:xlink="http://www.w3.org/1999/xlink"
   xmlns="http://www.w3.org/2000/svg"
   xmlns:svg="http://www.w3.org/2000/svg"
   xmlns:rdf="http://www.w3.org/1999/02/22-rdf-syntax-ns#"
   xmlns:cc="http://creativecommons.org/ns#"
   xmlns:dc="http://purl.org/dc/elements/1.1/">
  <defs
     id="defs992">
    <linearGradient
       inkscape:collect="always"
       id="linearGradient1401">
      <stop
         style="stop-color:#000000;stop-opacity:1;"
         offset="0.66107976"
         id="stop1399" />
      <stop
         style="stop-color:#ff0000;stop-opacity:1;"
         offset="1"
         id="stop1396" />
    </linearGradient>
    <radialGradient
       inkscape:collect="always"
       xlink:href="#linearGradient1401"
       id="radialGradient4834"
       cx="1144.9104"
       cy="95.175682"
       fx="1144.9104"
       fy="95.175682"
       r="29.349951"
       gradientTransform="matrix(0.87573129,-0.8626539,0.82088396,0.83332816,183.85811,951.91926)"
       gradientUnits="userSpaceOnUse" />
    <radialGradient
       inkscape:collect="always"
       xlink:href="#linearGradient1401"
       id="radialGradient4842"
       cx="1144.9104"
       cy="95.175682"
       fx="1144.9104"
       fy="95.175682"
       r="29.349951"
       gradientTransform="matrix(0.87573129,-0.8626539,0.82088396,0.83332816,183.85811,951.91926)"
       gradientUnits="userSpaceOnUse" />
    <radialGradient
       inkscape:collect="always"
       xlink:href="#linearGradient1401"
       id="radialGradient1403-76-7"
       cx="1144.9104"
       cy="95.175682"
       fx="1144.9104"
       fy="95.175682"
       r="29.349951"
       gradientTransform="matrix(0.87573129,-0.8626539,0.82088396,0.83332816,-1060.4411,964.56363)"
       gradientUnits="userSpaceOnUse" />
    <radialGradient
       inkscape:collect="always"
       xlink:href="#linearGradient1401"
       id="radialGradient17612"
       cx="1144.9104"
       cy="95.175682"
       fx="1144.9104"
       fy="95.175682"
       r="29.349951"
       gradientTransform="matrix(0.87573129,-0.8626539,0.82088396,0.83332816,301.36035,993.63779)"
       gradientUnits="userSpaceOnUse" />
    <radialGradient
       inkscape:collect="always"
       xlink:href="#linearGradient1401"
       id="radialGradient17620"
       cx="1144.9104"
       cy="95.175682"
       fx="1144.9104"
       fy="95.175682"
       r="29.349951"
       gradientTransform="matrix(0.87573129,-0.8626539,0.82088396,0.83332816,301.36035,993.63779)"
       gradientUnits="userSpaceOnUse" />
  </defs>
  <sodipodi:namedview
     id="base"
     pagecolor="#ffffff"
     bordercolor="#666666"
     borderopacity="1.0"
     inkscape:pageopacity="0.0"
     inkscape:pageshadow="2"
     inkscape:zoom="2.8"
     inkscape:cx="121.60714"
     inkscape:cy="139.64286"
     inkscape:document-units="mm"
     inkscape:current-layer="layer1"
     inkscape:document-rotation="0"
     showgrid="false"
     fit-margin-top="0"
     fit-margin-left="0"
     fit-margin-right="0"
     fit-margin-bottom="0"
     inkscape:window-width="2560"
     inkscape:window-height="1371"
     inkscape:window-x="0"
     inkscape:window-y="32"
     inkscape:window-maximized="1"
     inkscape:pagecheckerboard="0"
     inkscape:showpageshadow="2"
     inkscape:deskcolor="#d1d1d1" />
  <metadata
     id="metadata995">
    <rdf:RDF>
      <cc:Work
         rdf:about="">
        <dc:format>image/svg+xml</dc:format>
        <dc:type
           rdf:resource="http://purl.org/dc/dcmitype/StillImage" />
        <dc:title />
      </cc:Work>
    </rdf:RDF>
  </metadata>
  <g
     inkscape:label="Layer 1"
     inkscape:groupmode="layer"
     id="layer1"
     transform="translate(16.785353,-15.044695)">
    <path
       style="fill:none;stroke:#ffffff;stroke-width:1;stroke-linecap:butt;stroke-linejoin:miter;stroke-miterlimit:4;stroke-dasharray:none;stroke-opacity:1"
       d="M 9.9197323,40.20299 14.047432,52.90725 6.9532332,59.08403 18.192632,57.42197"
       id="path26-0-8-9-7-6-6-2-8"
       sodipodi:nodetypes="cccc"
       inkscape:export-xdpi="153.33067"
       inkscape:export-ydpi="153.33067" />
    <path
       style="fill:#ffffff;fill-opacity:1;stroke:none;stroke-width:0.465844;stroke-linecap:butt;stroke-linejoin:miter;stroke-miterlimit:4;stroke-dasharray:none;stroke-opacity:1"
       d="m 36.365532,42.50088 c -4.1119,0.99358 -6.0983,-0.87215 -7.9655,1.25716 -1.8672,2.1293 0.4596,5.00163 3.1088,3.73364 2.6491,-1.268 2.9739,-2.99749 4.8567,-4.99075 0,-10e-6 0,-5e-5 0,-5e-5 z"
       id="path24-7-2-2-4-5-3-92-3"
       sodipodi:nodetypes="czzsc"
       inkscape:export-xdpi="153.33067"
       inkscape:export-ydpi="153.33067" />
    <path
       id="path38-9-9-3-8-1-7-3-9-2-7-3-3-9-3"
       style="fill:#ff0000;fill-opacity:1;stroke:#000000;stroke-width:2;stroke-linecap:butt;stroke-linejoin:miter;stroke-miterlimit:4.5;stroke-dasharray:none;stroke-opacity:0.996639"
       d="m 18.011779,23.024089 c -0.4353,0.66488 -0.925,-0.33913 -1.3889,-0.53759 -1.6145,-1.27979 -3.229,-2.55957 -4.8435,-3.839359 -0.5626,2.861319 -1.1249,5.722679 -1.6875,8.583979 -1.8157997,-0.19852 -4.1321997,-0.36584 -5.9479997,-0.5644 1.0879,2.98047 2.4181,6.76747 3.506,9.74793 6.1833997,-4.11702 14.0786997,-5.44214 21.1456997,-3.30413 5.359,1.44071 9.9969,4.94169 12.9441,9.59988 1.9165,2.9488 3.2068,6.46186 4.1196,9.84956 l 16.9845,1.67116 c -4.144,-2.68787 -8.2864,-5.37834 -12.4316,-8.06445 3.2568,-0.45254 6.513,-0.90905 9.7695,-1.36328 -3.9276,-2.2053 -7.8564,-4.40854 -11.7832,-6.61524 3.0756,-0.7678 6.151,-1.5365 9.2266,-2.30469 -4.5769,-1.66066 -9.1533,-3.32255 -13.7305,-4.98242 2.0538,-1.4212 4.1095,-2.8397 6.1641,-4.25976 -4.5241,-0.51095 -9.0481,-1.02287 -13.5723,-1.53321 0.6367,-1.82007 1.272,-3.64065 1.9082,-5.46093 -3.371,1.12452 -6.7425,2.24763 -10.1133,3.37304 -1.0805,-2.11926 -2.1615,-4.238259 -3.2422,-6.357419 -2.3424,2.12044 -4.6849,4.240889 -7.0273,6.361329 z"
       sodipodi:nodetypes="ccccccccccccccccccccc"
       inkscape:export-xdpi="153.33067"
       inkscape:export-ydpi="153.33067" />
    <use
       x="0"
       y="0"
       xlink:href="#path38-9-9-3-8-1-7-3-9-2-7-3-3-9-3"
       id="use1620-4-6-6-3-0"
       transform="rotate(141.19676,21.666783,56.515042)"
       width="100%"
       height="100%"
       inkscape:transform-center-x="22.861643"
       inkscape:transform-center-y="17.18311"
       style="stroke:#ffffff;stroke-width:2;stroke-miterlimit:4.5;stroke-dasharray:none;stroke-opacity:0.996639"
       inkscape:export-xdpi="153.33067"
       inkscape:export-ydpi="153.33067" />
    <circle
       style="fill:#000000;fill-opacity:1;stroke:#000000;stroke-width:6.5;stroke-miterlimit:4;stroke-dasharray:none;stroke-opacity:1"
       id="path110-2-2-1-9-0-3-0-2-7-0-7-7"
       cx="21.927929"
       cy="56.616112"
       r="33.793282"
       inkscape:export-xdpi="153.33067"
       inkscape:export-ydpi="153.33067" />
    <path
       style="fill:#ffffff;fill-opacity:1;stroke:none;stroke-width:0.465844;stroke-linecap:butt;stroke-linejoin:miter;stroke-miterlimit:4;stroke-dasharray:none;stroke-opacity:1"
       d="m 35.389679,42.500879 c -4.1119,0.99358 -6.0983,-0.87215 -7.9655,1.25716 -1.8672,2.1293 0.4596,5.00163 3.1088,3.73364 2.6491,-1.268 2.9739,-2.99749 4.8567,-4.99075 0,-10e-6 0,-5e-5 0,-5e-5 z"
       id="path24-7-2-2-4-5-3-92-3-3-2-5-8"
       sodipodi:nodetypes="czzsc"
       inkscape:export-xdpi="153.33067"
       inkscape:export-ydpi="153.33067" />
    <path
       id="path38-9-9-3-8-1-7-3-9-2-5-6-2-6"
       style="fill:url(#radialGradient1403-76-7);fill-opacity:1;stroke:none;stroke-width:1;stroke-linecap:butt;stroke-linejoin:miter;stroke-miterlimit:4;stroke-dasharray:none;stroke-opacity:1"
       d="m 18.011779,23.024089 c -0.4353,0.66488 -0.925,-0.33913 -1.3889,-0.53759 -1.6145,-1.27979 -3.229,-2.55957 -4.8435,-3.839359 -0.5626,2.861319 -1.1249,5.722679 -1.6875,8.583979 -1.8157997,-0.19852 -4.1321997,-0.36584 -5.9479997,-0.5644 1.0879,2.98047 3.8866,10.8793 4.9745,13.85975 6.1833997,-4.11702 11.8968997,-5.14843 18.9638997,-3.01042 5.359,1.44071 6.3886,1.96271 9.3358,6.6209 1.9165,2.9488 -0.989,3.94442 -0.076,7.33212 l 25.5019,2.76205 c -4.144,-2.68787 -7.9102,-5.4226 -12.0554,-8.10871 3.2568,-0.45254 6.1368,-0.86479 9.3933,-1.31902 -3.9276,-2.2053 -7.8564,-4.40854 -11.7832,-6.61524 3.0756,-0.7678 6.151,-1.5365 9.2266,-2.30469 -4.5769,-1.66066 -9.1533,-3.32255 -13.7305,-4.98242 2.0538,-1.4212 4.1095,-2.8397 6.1641,-4.25976 -4.5241,-0.51095 -9.0481,-1.02287 -13.5723,-1.53321 0.6367,-1.82007 1.272,-3.64065 1.9082,-5.46093 -3.371,1.12452 -6.7425,2.24763 -10.1133,3.37304 -1.0805,-2.11926 -2.1615,-4.238259 -3.2422,-6.357419 -2.3424,2.12044 -4.6849,4.240889 -7.0273,6.361329 z"
       sodipodi:nodetypes="ccccccccccccccccccccc"
       inkscape:export-xdpi="153.33067"
       inkscape:export-ydpi="153.33067" />
    <use
       x="0"
       y="0"
       xlink:href="#path38-9-9-3-8-1-7-3-9-2-5-6-2-6"
       id="use1620-6-1-5-8"
       transform="rotate(141.19676,21.666783,56.515042)"
       width="100%"
       height="100%"
       inkscape:transform-center-x="22.861643"
       inkscape:transform-center-y="17.18311"
       inkscape:export-xdpi="153.33067"
       inkscape:export-ydpi="153.33067" />
    <path
       style="fill:none;stroke:#ffffff;stroke-width:1;stroke-linecap:butt;stroke-linejoin:miter;stroke-miterlimit:4;stroke-dasharray:none;stroke-opacity:1"
       d="M 8.9862793,40.16978 13.113979,52.87404 6.0197793,59.05082 17.259179,57.38876"
       id="path26-0-8-9-7-6-6-2-8-5-4-8"
       sodipodi:nodetypes="cccc"
       inkscape:export-xdpi="153.33067"
       inkscape:export-ydpi="153.33067" />
  </g>
</svg>
